<?xml version="1.0" encoding="utf-8"?>
<svg viewBox="208.7616 160.8131 81.3618 105.2352" xmlns="http://www.w3.org/2000/svg">
  <g transform="matrix(1, 0, 0, 1, 34.55290603637695, 37.90412521362304)">
    <path fill="#EA596E" d="M 249.428 161.725 C 249.428 145.784 214.89 132.501 214.89 132.501 L 214.89 198.919 C 214.89 198.919 249.428 177.665 249.428 161.725 Z" style=""/>
    <path fill="#EA596E" d="M 180.358 161.725 C 180.358 145.784 214.896 132.501 214.896 132.501 L 214.896 198.919 C 214.898 198.919 180.358 177.665 180.358 161.725 Z" style=""/>
    <path fill="#F4ABBA" d="M 238.801 161.725 C 238.801 171.908 214.89 193.606 214.89 193.606 C 214.89 193.606 190.98 171.908 190.98 161.725 C 190.98 148.441 214.89 132.501 214.89 132.501 C 214.89 132.501 238.801 148.441 238.801 161.725 Z" style=""/>
    <path fill="#BE1931" d="M 201.607 174.655 C 208.387 185.957 196.808 198.821 190.031 196.56 C 183.251 194.299 180.99 201.079 187.77 203.34 C 194.55 205.601 209.162 202.288 217.151 194.302 C 219.412 192.041 221.67 192.041 221.67 192.041 L 201.607 174.655 Z" style=""/>
    <path fill="#BE1931" d="M 228.174 174.655 C 221.394 185.957 232.972 198.821 239.749 196.56 C 246.532 194.299 248.79 201.079 242.01 203.34 C 235.23 205.601 220.618 202.288 212.629 194.302 C 210.368 192.041 208.108 192.041 208.108 192.041 L 228.174 174.655 Z" style=""/>
    <path fill="#EA596E" d="M 190.98 177.665 C 197.76 188.967 187.343 207.862 180.563 205.601 C 173.783 203.34 171.522 210.123 178.302 212.383 C 185.082 214.644 199.694 211.331 207.682 203.343 C 209.943 201.082 212.202 201.082 212.202 201.082 L 190.98 177.665 Z M 238.772 177.665 C 231.989 188.967 242.406 207.862 249.189 205.601 C 255.969 203.34 258.227 210.123 251.45 212.383 C 244.667 214.644 230.058 211.331 222.069 203.343 C 219.808 201.079 217.547 201.079 217.547 201.079 L 238.772 177.665 Z" style=""/>
    <path fill="#F4ABBA" d="M 249.218 218.446 C 243.049 220.502 230.831 204.233 233.487 188.292 C 238.801 175.009 222.86 168.415 222.86 161.77 C 222.86 145.543 217.465 135.907 214.808 135.907 C 212.151 135.907 206.92 145.543 206.92 161.77 C 206.92 168.415 190.98 175.009 196.293 188.292 C 198.95 204.233 186.731 220.502 180.563 218.446 C 173.783 216.185 171.522 225.226 178.302 227.484 C 185.082 229.745 197.082 226.068 205.422 218.446 C 210.371 213.922 214.89 213.922 214.89 213.922 C 214.89 213.922 219.409 213.922 224.356 218.444 C 232.696 226.066 244.696 229.743 251.476 227.482 C 258.256 225.224 255.998 216.185 249.218 218.446 Z" style=""/>
    <circle cx="205.592" cy="194.934" r="6.642" fill="#292F33" style=""/>
    <circle cx="224.189" cy="194.934" r="6.642" fill="#292F33" style=""/>
  </g>
  <g transform="matrix(0.8315780162811279, 0, 0, 0.8315780162811279, -2.0239109992980957, 102.40763092041016)" style="">
    <g transform="matrix(1, 0, 0, 1, 56.298775, -241.917526)">
      <ellipse style="stroke: rgb(0, 0, 0); stroke-width: 0px; fill: rgb(69, 58, 98);" cx="246.098" cy="338.629" rx="26.477" ry="26.477"/>
      <path d="M 229.232 350.576 L 237.103 338.629 L 229.232 326.683 L 235.135 326.683 L 243.287 338.629 L 235.276 350.576 L 229.232 350.576 Z M 237.103 350.576 L 245.114 338.629 L 237.103 326.683 L 243.287 326.683 L 259.169 350.576 L 253.125 350.576 L 248.065 342.845 L 243.287 350.576 L 237.103 350.576 Z M 256.358 343.548 L 253.687 339.613 L 262.963 339.613 L 262.963 343.548 L 256.358 343.548 Z M 252.422 337.645 L 249.752 333.71 L 262.963 333.71 L 262.963 337.645 L 252.422 337.645 Z" class="a" style="fill: rgb(255, 255, 255);"/>
    </g>
  </g>
</svg>